HIERARCHY
ROOT root
{
	OFFSET 0.000000 0.000000 0.000000
	CHANNELS 6 Xposition Yposition Zposition Zrotation Yrotation Xrotation
	JOINT lhip
	{
		OFFSET 0.058581 -0.082280 -0.017664
		CHANNELS 3 Zrotation Yrotation Xrotation
		JOINT lknee
		{
			OFFSET 0.043451 -0.386469 0.008037
			CHANNELS 3 Zrotation Yrotation Xrotation
			JOINT lankle
			{
				OFFSET -0.014790 -0.426874 -0.037428
				CHANNELS 3 Zrotation Yrotation Xrotation
				JOINT ltoe
				{
					OFFSET 0.041054 -0.060286 0.122042
					CHANNELS 3 Zrotation Yrotation Xrotation
					End Site
					{
						OFFSET 0.000000 0.000000 0.000000
					}
				}
			}
		}
	}
	JOINT rhip
	{
		OFFSET -0.060310 -0.090513 -0.013543
		CHANNELS 3 Zrotation Yrotation Xrotation
		JOINT rknee
		{
			OFFSET -0.043257 -0.383688 -0.004843
			CHANNELS 3 Zrotation Yrotation Xrotation
			JOINT rankle
			{
				OFFSET 0.019056 -0.420046 -0.034562
				CHANNELS 3 Zrotation Yrotation Xrotation
				JOINT rtoe
				{
					OFFSET -0.034840 -0.062106 0.130323
					CHANNELS 3 Zrotation Yrotation Xrotation
					End Site
					{
						OFFSET 0.000000 0.000000 0.000000
					}
				}
			}
		}
	}
	JOINT lowerback
	{
		OFFSET 0.004439 0.124404 -0.038385
		CHANNELS 3 Zrotation Yrotation Xrotation
		JOINT upperback
		{
			OFFSET 0.004488 0.137956 0.026820
			CHANNELS 3 Zrotation Yrotation Xrotation
			JOINT chest
			{
				OFFSET -0.002265 0.056032 0.002855
				CHANNELS 3 Zrotation Yrotation Xrotation
				JOINT lowerneck
				{
					OFFSET -0.013390 0.211636 -0.033468
					CHANNELS 3 Zrotation Yrotation Xrotation
					JOINT upperneck
					{
						OFFSET 0.010113 0.088937 0.050410
						CHANNELS 3 Zrotation Yrotation Xrotation
						End Site
						{
							OFFSET 0.000000 0.000000 0.000000
						}
					}
				}
				JOINT lclavicle
				{
					OFFSET 0.071702 0.114000 -0.018898
					CHANNELS 3 Zrotation Yrotation Xrotation
					JOINT lshoulder
					{
						OFFSET 0.122921 0.045205 -0.019046
						CHANNELS 3 Zrotation Yrotation Xrotation
						JOINT lelbow
						{
							OFFSET 0.255332 -0.015649 -0.022946
							CHANNELS 3 Zrotation Yrotation Xrotation
							JOINT lwrist
							{
								OFFSET 0.265709 0.012698 -0.007375
								CHANNELS 3 Zrotation Yrotation Xrotation
								End Site
								{
									OFFSET 0.000000 0.000000 0.000000
								}
							}
						}
					}
				}
				JOINT rclavicle
				{
					OFFSET -0.082954 0.112472 -0.023707
					CHANNELS 3 Zrotation Yrotation Xrotation
					JOINT rshoulder
					{
						OFFSET -0.113228 0.046853 -0.008472
						CHANNELS 3 Zrotation Yrotation Xrotation
						JOINT relbow
						{
							OFFSET -0.260127 -0.014369 -0.031269
							CHANNELS 3 Zrotation Yrotation Xrotation
							JOINT rwrist
							{
								OFFSET -0.269108 0.006794 -0.006027
								CHANNELS 3 Zrotation Yrotation Xrotation
								End Site
								{
									OFFSET 0.000000 0.000000 0.000000
								}
							}
						}
					}
				}
			}
		}
	}
}
MOTION
Frames: 5
Frame Time: 0.033333
0.108366 -1.934174 0.859469 178.820469 0.191898 83.977548 15.450075 2.531938 -34.273416 -10.892834 4.619092 60.403343 2.058928 -0.175289 -25.555318 0.000000 -0.000000 0.000000 -7.011037 -6.621060 -22.042163 2.857835 -7.149385 84.750456 0.757997 -5.005306 -17.716534 0.000000 -0.000000 0.000000 -7.792291 11.282274 24.618946 3.056407 0.658326 17.529841 2.384382 2.542723 -3.912953 1.063346 4.904208 -12.110667 0.728861 -2.706690 -13.600424 -27.721089 -7.230804 4.138709 -48.877930 0.202701 6.011049 6.695132 -48.163331 7.505174 4.863591 -3.086163 -17.336693 32.267853 14.240243 6.099884 34.934555 15.705450 -6.158659 -35.289892 35.100206 -39.186059 4.057481 6.012734 -12.022042 
0.113199 -1.861531 0.882075 178.820271 1.426121 85.448207 16.374023 2.931792 -30.758708 -11.645766 4.367304 61.423303 1.096878 3.002523 -23.061796 0.000000 -0.000000 0.000000 -5.985371 -5.855740 -29.109662 5.032934 -10.433911 79.485823 1.361843 -5.159059 -18.372014 0.000000 -0.000000 0.000000 -8.007952 8.776506 25.953513 3.467469 -0.213511 11.158584 2.769341 0.569834 -1.945329 0.787012 8.080044 -11.360512 0.124618 -0.050025 -11.444959 -25.972437 -5.579719 4.980318 -44.234264 2.359728 5.614520 6.559746 -57.882659 8.183948 11.986572 -0.698220 -15.068790 31.591607 10.648446 4.316054 38.415721 13.011572 -3.346800 -47.544545 43.267017 -44.032485 0.005120 7.234042 -6.377068 
0.121030 -1.791511 0.906719 179.335303 2.606656 85.987262 17.429679 4.196742 -30.298092 -11.888652 3.572699 66.413496 -1.909964 3.987709 -12.880127 0.000000 -0.000000 0.000000 -6.569138 -4.924838 -33.211302 4.742158 -11.987783 72.441883 1.434409 -4.621322 -17.616366 0.000000 -0.000000 0.000000 -8.649323 6.942180 26.151028 4.997550 -1.693941 9.650172 3.407223 -1.056591 -1.759682 0.796634 12.749084 -10.824303 -1.631390 2.858334 -10.303735 -22.911986 -3.869613 4.784108 -42.069187 3.521590 6.822737 4.762233 -64.110325 11.172648 15.879560 -0.728073 -13.493009 29.995184 7.165570 2.038279 39.482298 11.793514 -1.695397 -52.822669 47.588276 -47.533355 -0.083638 7.674518 -6.942266 
0.126795 -1.697535 0.925392 179.789028 3.815513 85.339624 19.293688 4.998735 -26.072249 -7.799566 4.560182 68.959854 1.129144 9.067233 -9.845844 0.000000 -0.000000 0.000000 -8.736434 -4.987962 -34.863540 6.031338 -9.593283 63.379724 0.328198 -7.213028 -15.253093 0.000000 -0.000000 0.000000 -8.228540 4.170151 23.587004 5.999550 -3.395133 11.062614 3.917363 -3.406621 -2.446230 -0.674164 16.163783 -7.153575 -2.533751 11.218742 -9.856048 -21.526403 -3.374457 7.911322 -41.530419 3.709821 6.154356 -2.733218 -66.009089 16.005986 12.214157 1.042112 -21.074844 28.718820 4.665029 3.128227 39.775430 11.616141 -1.886150 -52.439915 44.966830 -52.199684 2.166318 5.523421 -13.746829 
0.129062 -1.637783 0.929078 179.492126 4.578021 83.942966 20.831095 5.208308 -20.752529 -10.723900 2.659905 68.416739 -1.749529 4.630541 -12.329313 0.000000 -0.000000 0.000000 -10.487243 -4.536983 -34.026077 5.820855 -8.002433 58.582074 1.000699 -7.022652 -14.105970 0.000000 -0.000000 0.000000 -7.699609 2.567510 22.351975 6.339785 -4.060804 12.096120 4.092547 -4.176517 -2.686385 -0.407256 18.165677 -5.429151 -3.556274 14.487672 -8.078946 -22.023835 -3.576241 7.942855 -43.540258 2.833143 7.608964 -2.499504 -64.637386 15.200087 11.838433 -0.590276 -23.896692 28.249062 3.584643 3.598024 40.377062 10.822712 -3.315317 -49.783851 41.384254 -55.536280 7.481792 4.433458 -22.932960 
